<svg aria-hidden="true" style="position: absolute; width: 0; height: 0; overflow: hidden;" version="1.1" xmlns="http://www.w3.org/2000/svg" xmlns:xlink="http://www.w3.org/1999/xlink">
<defs>
<symbol id="icon-appleinc" viewBox="0 0 32 32">
<path d="M24.734 17.003c-0.040-4.053 3.305-5.996 3.454-6.093-1.88-2.751-4.808-3.127-5.851-3.171-2.492-0.252-4.862 1.467-6.127 1.467-1.261 0-3.213-1.43-5.28-1.392-2.716 0.040-5.221 1.579-6.619 4.012-2.822 4.897-0.723 12.151 2.028 16.123 1.344 1.944 2.947 4.127 5.051 4.049 2.026-0.081 2.793-1.311 5.242-1.311s3.138 1.311 5.283 1.271c2.18-0.041 3.562-1.981 4.897-3.931 1.543-2.255 2.179-4.439 2.216-4.551-0.048-0.022-4.252-1.632-4.294-6.473zM20.705 5.11c1.117-1.355 1.871-3.235 1.665-5.11-1.609 0.066-3.559 1.072-4.713 2.423-1.036 1.199-1.942 3.113-1.699 4.951 1.796 0.14 3.629-0.913 4.747-2.264z"></path>
</symbol>
<symbol id="icon-android" viewBox="0 0 32 32">
<path d="M28 12c-1.1 0-2 0.9-2 2v8c0 1.1 0.9 2 2 2s2-0.9 2-2v-8c0-1.1-0.9-2-2-2zM4 12c-1.1 0-2 0.9-2 2v8c0 1.1 0.9 2 2 2s2-0.9 2-2v-8c0-1.1-0.9-2-2-2zM7 23c0 1.657 1.343 3 3 3v0 4c0 1.1 0.9 2 2 2s2-0.9 2-2v-4h4v4c0 1.1 0.9 2 2 2s2-0.9 2-2v-4c1.657 0 3-1.343 3-3v-11h-18v11z"></path>
<path d="M24.944 10c-0.304-2.746-1.844-5.119-4.051-6.551l1.001-2.001c0.247-0.494 0.047-1.095-0.447-1.342s-1.095-0.047-1.342 0.447l-1.004 2.009-0.261-0.104c-0.893-0.297-1.848-0.458-2.84-0.458s-1.947 0.161-2.84 0.458l-0.261 0.104-1.004-2.009c-0.247-0.494-0.848-0.694-1.342-0.447s-0.694 0.848-0.447 1.342l1.001 2.001c-2.207 1.433-3.747 3.805-4.051 6.551v1h17.944v-1h-0.056zM13 8c-0.552 0-1-0.448-1-1s0.447-0.999 0.998-1c0.001 0 0.002 0 0.003 0s0.001-0 0.002-0c0.551 0.001 0.998 0.448 0.998 1s-0.448 1-1 1zM19 8c-0.552 0-1-0.448-1-1s0.446-0.999 0.998-1c0 0 0.001 0 0.002 0s0.002-0 0.003-0c0.551 0.001 0.998 0.448 0.998 1s-0.448 1-1 1z"></path>
</symbol>
<symbol id="icon-logo" viewBox="0 0 32 32">
<path d="M10.883 9.758c0.025 0.007 0.043 0.022 0.055 0.047 0.155 0.227 0.301 0.456 0.438 0.688-0.784 0.471-1.568 0.943-2.352 1.414-0.023 0.012-0.043 0.010-0.063-0.008-0.067-0.106-0.138-0.21-0.211-0.313-0.010-0.016-0.010-0.031 0-0.047 0.709-0.598 1.42-1.191 2.133-1.781z"></path>
<path d="M4.008 12.258c0.525-0.010 1.046 0.029 1.563 0.117 0.25 0.045 0.479 0.139 0.688 0.281 0.257 0.237 0.372 0.531 0.344 0.883-0.24 0.005-0.479 0-0.719-0.016 0.003-0.182-0.065-0.33-0.203-0.445-0.103-0.057-0.213-0.099-0.328-0.125-0.186-0.035-0.373-0.055-0.563-0.063-0.474-0.010-0.948-0.010-1.422 0-0.255 0.001-0.505 0.038-0.75 0.109-0.223 0.095-0.327 0.265-0.313 0.508-0.004 0.143 0.024 0.278 0.086 0.406 0.062 0.079 0.143 0.129 0.242 0.148 0.211 0.042 0.425 0.063 0.641 0.063 0.5 0.005 1 0.010 1.5 0.016 0.382 0.004 0.757 0.056 1.125 0.156 0.405 0.144 0.636 0.428 0.695 0.852 0.138 0.822-0.198 1.314-1.008 1.477-0.325 0.062-0.653 0.098-0.984 0.109-0.532 0.017-1.063 0.007-1.594-0.031-0.303-0.029-0.595-0.102-0.875-0.219-0.399-0.206-0.586-0.537-0.563-0.992 0.245 0 0.49 0 0.734 0-0.017 0.322 0.128 0.528 0.438 0.617 0.108 0.029 0.217 0.050 0.328 0.063 0.62 0.052 1.24 0.052 1.859 0 0.274-0.012 0.529-0.085 0.766-0.219 0.089-0.076 0.144-0.173 0.164-0.289 0.003-0.079 0.011-0.157 0.023-0.234 0.004-0.157-0.035-0.303-0.117-0.438-0.111-0.105-0.244-0.165-0.398-0.18-0.129-0.022-0.26-0.038-0.391-0.047-0.646-0.016-1.292-0.032-1.938-0.047-0.31-0.009-0.612-0.061-0.906-0.156-0.339-0.144-0.519-0.402-0.539-0.773-0.057-0.312-0.015-0.608 0.125-0.891 0.12-0.165 0.273-0.288 0.461-0.367 0.357-0.137 0.727-0.215 1.109-0.234 0.242-0.013 0.482-0.026 0.719-0.039z"></path>
<path d="M10.039 12.258c-0.448 0.006-0.891 0.065-1.328 0.18-0.608 0.213-0.97 0.637-1.086 1.273-0.084 0.466-0.105 0.935-0.063 1.406 0.064 0.882 0.53 1.405 1.398 1.57 0.737 0.115 1.477 0.131 2.219 0.047 0.252-0.025 0.497-0.083 0.734-0.172 0.465-0.203 0.683-0.559 0.656-1.070-0.24-0.003-0.479 0-0.719 0.008-0.007 0.115-0.030 0.227-0.070 0.336-0.027 0.058-0.066 0.108-0.117 0.148-0.143 0.091-0.3 0.148-0.469 0.172-0.704 0.076-1.407 0.071-2.109-0.016-0.303-0.051-0.524-0.209-0.664-0.477-0.109-0.303-0.158-0.615-0.148-0.938 1.417 0 2.833 0 4.25 0 0.055-0.269 0.062-0.54 0.023-0.813-0.072-0.796-0.492-1.304-1.258-1.523-0.411-0.097-0.828-0.141-1.25-0.133zM9.586 12.883c0.381-0.006 0.761 0.002 1.141 0.023 0.342 0.013 0.631 0.141 0.867 0.383 0.12 0.151 0.193 0.323 0.219 0.516 0.014 0.144 0.027 0.287 0.039 0.43-1.193 0.008-2.385 0.010-3.578 0.008-0.009-0.278 0.030-0.549 0.117-0.813 0.11-0.193 0.269-0.331 0.477-0.414 0.236-0.077 0.475-0.121 0.719-0.133z"></path>
<path d="M16.32 12.258c0.341 0.001 0.68 0.029 1.016 0.086 0.411 0.058 0.737 0.254 0.977 0.586 0.144 0.268 0.222 0.555 0.234 0.859 0.028 0.971 0.030 1.94 0.008 2.906-0.24 0-0.479 0-0.719 0 0.003-0.807 0-1.615-0.008-2.422 0.011-0.302-0.036-0.594-0.141-0.875-0.117-0.19-0.281-0.323-0.492-0.398-0.34-0.093-0.686-0.132-1.039-0.117-0.448-0.021-0.883 0.044-1.305 0.195-0.363 0.159-0.558 0.438-0.586 0.836-0.008 0.927-0.010 1.854-0.008 2.781-0.245 0-0.49 0-0.734 0 0-1.438 0-2.875 0-4.313 0.245 0 0.49 0 0.734 0-0.003 0.224 0 0.448 0.008 0.672 0.165-0.269 0.397-0.46 0.695-0.57 0.443-0.147 0.897-0.222 1.359-0.227z"></path>
<path d="M21.945 12.258c0.525-0.010 1.046 0.029 1.563 0.117 0.25 0.045 0.479 0.139 0.688 0.281 0.257 0.237 0.372 0.531 0.344 0.883-0.24 0.005-0.479 0-0.719-0.016 0.003-0.182-0.065-0.33-0.203-0.445-0.103-0.057-0.213-0.099-0.328-0.125-0.186-0.035-0.373-0.055-0.563-0.063-0.474-0.010-0.948-0.010-1.422 0-0.255 0.001-0.505 0.038-0.75 0.109-0.223 0.095-0.327 0.265-0.313 0.508-0.004 0.143 0.024 0.278 0.086 0.406 0.062 0.079 0.143 0.129 0.242 0.148 0.211 0.042 0.425 0.063 0.641 0.063 0.5 0.005 1 0.010 1.5 0.016 0.382 0.004 0.757 0.056 1.125 0.156 0.405 0.144 0.636 0.428 0.695 0.852 0.138 0.822-0.198 1.314-1.008 1.477-0.325 0.062-0.653 0.098-0.984 0.109-0.532 0.017-1.063 0.007-1.594-0.031-0.303-0.029-0.595-0.102-0.875-0.219-0.399-0.206-0.586-0.537-0.563-0.992 0.245 0 0.49 0 0.734 0-0.017 0.322 0.128 0.528 0.438 0.617 0.108 0.029 0.217 0.050 0.328 0.063 0.62 0.052 1.24 0.052 1.859 0 0.274-0.012 0.529-0.085 0.766-0.219 0.089-0.076 0.144-0.173 0.164-0.289 0.003-0.079 0.011-0.157 0.023-0.234 0.004-0.157-0.035-0.303-0.117-0.438-0.111-0.105-0.244-0.165-0.398-0.18-0.129-0.022-0.26-0.038-0.391-0.047-0.646-0.016-1.292-0.032-1.938-0.047-0.31-0.009-0.612-0.061-0.906-0.156-0.339-0.144-0.519-0.402-0.539-0.773-0.057-0.312-0.015-0.608 0.125-0.891 0.12-0.165 0.273-0.288 0.461-0.367 0.357-0.137 0.727-0.215 1.109-0.234 0.242-0.013 0.482-0.026 0.719-0.039z"></path>
<path d="M27.852 12.258c-0.365 0.010-0.73 0.049-1.094 0.117-0.621 0.119-1.035 0.476-1.242 1.070-0.142 0.528-0.189 1.064-0.141 1.609 0.042 0.91 0.508 1.454 1.398 1.633 0.622 0.098 1.247 0.124 1.875 0.078 0.324-0.013 0.642-0.065 0.953-0.156 0.547-0.169 0.812-0.542 0.797-1.117-0.245 0-0.49 0-0.734 0 0 0.377-0.187 0.594-0.563 0.648-0.729 0.094-1.458 0.094-2.188 0-0.372-0.054-0.614-0.26-0.727-0.617-0.064-0.262-0.098-0.527-0.102-0.797 1.417 0.005 2.833 0 4.25-0.016 0.035-0.099 0.055-0.2 0.063-0.305-0.010-0.185-0.023-0.37-0.039-0.555-0.119-0.848-0.601-1.351-1.445-1.508-0.352-0.058-0.706-0.087-1.063-0.086zM27.398 12.883c0.381-0.006 0.761 0.002 1.141 0.023 0.36 0.012 0.659 0.15 0.898 0.414 0.111 0.165 0.178 0.348 0.203 0.547 0.015 0.125 0.022 0.25 0.023 0.375-1.193 0-2.385 0-3.578 0 0.004-0.221 0.027-0.44 0.070-0.656 0.082-0.274 0.256-0.464 0.523-0.57 0.236-0.077 0.475-0.121 0.719-0.133z"></path>
<path d="M10.445 18.086c0 0.354 0 0.708 0 1.063 0.052 0 0.104 0 0.156 0-0.002-0.021 0-0.042 0.008-0.063 0.042 0.038 0.092 0.062 0.148 0.070 0.125 0.010 0.25 0.010 0.375 0 0.099-0.010 0.18-0.055 0.242-0.133 0.155-0.558-0.056-0.785-0.633-0.68-0.049 0.008-0.093 0.026-0.133 0.055-0.008-0.104-0.010-0.208-0.008-0.313-0.052 0-0.104 0-0.156 0zM10.758 18.461c0.125-0.003 0.25 0 0.375 0.008 0.069 0.011 0.113 0.050 0.133 0.117 0.010 0.109 0.010 0.219 0 0.328-0.031 0.093-0.096 0.137-0.195 0.133-0.115 0.012-0.23 0.007-0.344-0.016-0.067-0.020-0.106-0.064-0.117-0.133-0.010-0.099-0.010-0.198 0-0.297 0.027-0.072 0.077-0.119 0.148-0.141z"></path>
<path d="M18.18 18.133c0.047 0 0.094 0 0.141 0 0 0.073 0 0.146 0 0.219 0.167 0 0.333 0 0.5 0 0 0.042 0 0.083 0 0.125-0.167 0-0.333 0-0.5 0-0.003 0.151 0 0.302 0.008 0.453 0.004 0.025 0.012 0.048 0.023 0.070 0.104 0.031 0.208 0.031 0.313 0 0.022-0.018 0.035-0.042 0.039-0.070 0.008-0.047 0.010-0.093 0.008-0.141 0.042 0 0.083 0 0.125 0 0.014 0.113-0.012 0.214-0.078 0.305-0.035 0.020-0.071 0.036-0.109 0.047-0.121 0.014-0.241 0.009-0.359-0.016-0.055-0.035-0.089-0.084-0.102-0.148-0.008-0.167-0.010-0.333-0.008-0.5-0.057 0-0.115 0-0.172 0 0-0.042 0-0.083 0-0.125 0.057 0 0.115 0 0.172 0 0-0.073 0-0.146 0-0.219z"></path>
<path d="M12.648 18.336c-0.097 0.015-0.178 0.062-0.242 0.141-0.052 0.141-0.068 0.287-0.047 0.438 0.032 0.146 0.123 0.227 0.273 0.242 0.167 0.014 0.334 0.008 0.5-0.016 0.104-0.039 0.156-0.114 0.156-0.227-0.052 0-0.104 0-0.156 0 0.012 0.058-0.009 0.097-0.063 0.117-0.124 0.023-0.249 0.028-0.375 0.016-0.154-0.015-0.222-0.1-0.203-0.258 0.267 0.010 0.53-0 0.789-0.031 0.028-0.219-0.064-0.357-0.273-0.414-0.12-0.008-0.239-0.010-0.359-0.008zM12.633 18.461c0.137-0.006 0.272 0.001 0.406 0.023 0.072 0.052 0.103 0.122 0.094 0.211-0.214 0-0.427 0-0.641 0-0.011-0.114 0.036-0.192 0.141-0.234z"></path>
<path d="M14.508 18.336c-0.138 0.018-0.211 0.096-0.219 0.234 0.047 0 0.094 0 0.141 0 0.006-0.056 0.037-0.090 0.094-0.102 0.125-0.010 0.25-0.010 0.375 0 0.021 0.010 0.042 0.021 0.063 0.031 0.057 0.071 0.075 0.152 0.055 0.242-0.037-0.019-0.076-0.032-0.117-0.039-0.173-0.014-0.345-0.009-0.516 0.016-0.041 0.014-0.075 0.037-0.102 0.070-0.083 0.161-0.044 0.279 0.117 0.352 0.183 0.041 0.365 0.041 0.547 0 0.028-0.012 0.051-0.030 0.070-0.055 0.008 0.020 0.010 0.041 0.008 0.063 0.052 0 0.104 0 0.156 0 0.003-0.167 0-0.333-0.008-0.5-0.008-0.17-0.094-0.271-0.258-0.305-0.135-0.008-0.271-0.010-0.406-0.008zM14.477 18.82c0.162-0.006 0.324 0.002 0.484 0.023 0.077 0.050 0.082 0.107 0.016 0.172-0.17 0.045-0.342 0.050-0.516 0.016-0.106-0.079-0.101-0.15 0.016-0.211z"></path>
<path d="M16.148 18.352c0.052 0 0.104 0 0.156 0-0.003 0.193 0 0.385 0.008 0.578 0.023 0.044 0.057 0.078 0.102 0.102 0.142 0.034 0.283 0.029 0.422-0.016 0.039-0.018 0.068-0.047 0.086-0.086 0.023-0.192 0.030-0.384 0.023-0.578 0.047 0 0.094 0 0.141 0 0 0.266 0 0.531 0 0.797-0.047 0-0.094 0-0.141 0 0.003-0.032 0-0.063-0.008-0.094-0.055 0.052-0.12 0.086-0.195 0.102-0.159 0.017-0.315 0.007-0.469-0.031-0.069-0.053-0.108-0.123-0.117-0.211-0.008-0.188-0.010-0.375-0.008-0.563z"></path>
<path d="M19.758 18.367c0.058-0.021 0.118-0.021 0.18 0 0.108 0.221 0.22 0.44 0.336 0.656 0.117-0.218 0.221-0.442 0.313-0.672 0.057 0 0.115 0 0.172 0-0.14 0.311-0.288 0.618-0.445 0.922-0.106 0.12-0.238 0.167-0.398 0.141 0-0.042 0-0.083 0-0.125 0.069 0.005 0.137-0.003 0.203-0.023 0.090-0.040 0.103-0.089 0.039-0.148-0.129-0.253-0.262-0.503-0.398-0.75z"></path>
</symbol>
</defs>
</svg>
