<svg xmlns="http://www.w3.org/2000/svg" aria-hidden="true" style="position:absolute;width:0;height:0;overflow:hidden">
  <defs>
    <symbol id="icon-appleinc" viewBox="0 0 32 32">
      <path d="M24.734 17.003c-.04-4.053 3.305-5.996 3.454-6.093-1.88-2.751-4.808-3.127-5.851-3.171-2.492-.252-4.862 1.467-6.127 1.467-1.261 0-3.213-1.43-5.28-1.392-2.716.04-5.221 1.579-6.619 4.012-2.822 4.897-.723 12.151 2.028 16.123 1.344 1.944 2.947 4.127 5.051 4.049 2.026-.081 2.793-1.311 5.242-1.311s3.138 1.311 5.283 1.271c2.18-.041 3.562-1.981 4.897-3.931 1.543-2.255 2.179-4.439 2.216-4.551-.048-.022-4.252-1.632-4.294-6.473zM20.705 5.11C21.822 3.755 22.576 1.875 22.37 0c-1.609.066-3.559 1.072-4.713 2.423-1.036 1.199-1.942 3.113-1.699 4.951 1.796.14 3.629-.913 4.747-2.264z"/>
    </symbol>
    <symbol id="icon-android" viewBox="0 0 32 32">
      <path d="M28 12c-1.1 0-2 .9-2 2v8c0 1.1.9 2 2 2s2-.9 2-2v-8c0-1.1-.9-2-2-2zM4 12c-1.1 0-2 .9-2 2v8c0 1.1.9 2 2 2s2-.9 2-2v-8c0-1.1-.9-2-2-2zm3 11a3 3 0 0 0 3 3v4c0 1.1.9 2 2 2s2-.9 2-2v-4h4v4c0 1.1.9 2 2 2s2-.9 2-2v-4a3 3 0 0 0 3-3V12H7v11zM24.944 10a8.994 8.994 0 0 0-4.051-6.551l1.001-2.001a1 1 0 0 0-1.789-.895l-1.004 2.009-.261-.104C17.947 2.161 16.992 2 16 2s-1.947.161-2.84.458l-.261.104L11.895.553a1 1 0 0 0-1.789.895l1.001 2.001A8.996 8.996 0 0 0 7.056 10v1H25v-1h-.056zM13 8a1 1 0 0 1-.002-2h.005a1 1 0 0 1-.002 2zm6 0a1 1 0 0 1-.002-2h.005a1 1 0 0 1-.002 2z"/>
    </symbol>
    <symbol id="icon-logo" viewBox="0 0 32 32">
      <path d="M10.883 9.758a.083.083 0 0 1 .055.047c.155.227.301.456.438.688l-2.352 1.414c-.023.012-.043.01-.063-.008a7.141 7.141 0 0 0-.211-.313.04.04 0 0 1 0-.047c.709-.598 1.42-1.191 2.133-1.781zM4.008 12.258a8.347 8.347 0 0 1 1.563.117c.25.045.479.139.688.281.257.237.372.531.344.883-.24.005-.479 0-.719-.016a.54.54 0 0 0-.203-.445 1.242 1.242 0 0 0-.328-.125 3.927 3.927 0 0 0-.563-.063c-.474-.01-.948-.01-1.422 0a2.72 2.72 0 0 0-.75.109.477.477 0 0 0-.313.508.861.861 0 0 0 .086.406.394.394 0 0 0 .242.148c.211.042.425.063.641.063l1.5.016a4.45 4.45 0 0 1 1.125.156c.405.144.636.428.695.852.138.822-.198 1.314-1.008 1.477a6.372 6.372 0 0 1-.984.109c-.532.017-1.063.007-1.594-.031a2.999 2.999 0 0 1-.875-.219c-.399-.206-.586-.537-.563-.992h.734c-.017.322.128.528.438.617.108.029.217.05.328.063.62.052 1.24.052 1.859 0 .274-.012.529-.085.766-.219a.476.476 0 0 0 .164-.289c.003-.079.011-.157.023-.234a.788.788 0 0 0-.117-.438.656.656 0 0 0-.398-.18 3.935 3.935 0 0 0-.391-.047l-1.938-.047a3.237 3.237 0 0 1-.906-.156c-.339-.144-.519-.402-.539-.773a1.392 1.392 0 0 1 .125-.891c.12-.165.273-.288.461-.367a3.573 3.573 0 0 1 1.109-.234l.719-.039zM10.039 12.258a5.488 5.488 0 0 0-1.328.18c-.608.213-.97.637-1.086 1.273a5.26 5.26 0 0 0-.063 1.406c.064.882.53 1.405 1.398 1.57a8.286 8.286 0 0 0 2.219.047c.252-.025.497-.083.734-.172.465-.203.683-.559.656-1.07-.24-.003-.479 0-.719.008-.007.115-.03.227-.07.336a.401.401 0 0 1-.117.148c-.143.091-.3.148-.469.172a9.126 9.126 0 0 1-2.109-.016.872.872 0 0 1-.664-.477 2.514 2.514 0 0 1-.148-.938h4.25c.055-.269.062-.54.023-.813-.072-.796-.492-1.304-1.258-1.523a5.009 5.009 0 0 0-1.25-.133zm-.453.625c.381-.006.761.002 1.141.023.342.013.631.141.867.383.12.151.193.323.219.516l.039.43c-1.193.008-2.385.01-3.578.008-.009-.278.03-.549.117-.813a.93.93 0 0 1 .477-.414c.236-.077.475-.121.719-.133zM16.32 12.258c.341.001.68.029 1.016.086a1.4 1.4 0 0 1 .977.586c.144.268.222.555.234.859.028.971.03 1.94.008 2.906h-.719c.003-.807 0-1.615-.008-2.422a2.244 2.244 0 0 0-.141-.875.927.927 0 0 0-.492-.398 3.37 3.37 0 0 0-1.039-.117 3.369 3.369 0 0 0-1.305.195c-.363.159-.558.438-.586.836-.008.927-.01 1.854-.008 2.781h-.734v-4.313h.734c-.003.224 0 .448.008.672.165-.269.397-.46.695-.57a4.446 4.446 0 0 1 1.359-.227zM21.945 12.258a8.347 8.347 0 0 1 1.563.117c.25.045.479.139.688.281.257.237.372.531.344.883-.24.005-.479 0-.719-.016a.54.54 0 0 0-.203-.445 1.242 1.242 0 0 0-.328-.125 3.927 3.927 0 0 0-.563-.063c-.474-.01-.948-.01-1.422 0a2.72 2.72 0 0 0-.75.109.477.477 0 0 0-.313.508.861.861 0 0 0 .086.406.394.394 0 0 0 .242.148c.211.042.425.063.641.063l1.5.016a4.45 4.45 0 0 1 1.125.156c.405.144.636.428.695.852.138.822-.198 1.314-1.008 1.477a6.372 6.372 0 0 1-.984.109c-.532.017-1.063.007-1.594-.031a2.999 2.999 0 0 1-.875-.219c-.399-.206-.586-.537-.563-.992h.734c-.017.322.128.528.438.617.108.029.217.05.328.063.62.052 1.24.052 1.859 0 .274-.012.529-.085.766-.219a.476.476 0 0 0 .164-.289c.003-.079.011-.157.023-.234a.788.788 0 0 0-.117-.438.656.656 0 0 0-.398-.18 3.935 3.935 0 0 0-.391-.047l-1.938-.047a3.237 3.237 0 0 1-.906-.156c-.339-.144-.519-.402-.539-.773a1.392 1.392 0 0 1 .125-.891c.12-.165.273-.288.461-.367a3.573 3.573 0 0 1 1.109-.234l.719-.039zM27.852 12.258c-.365.01-.73.049-1.094.117-.621.119-1.035.476-1.242 1.07a4.594 4.594 0 0 0-.141 1.609c.042.91.508 1.454 1.398 1.633a8.172 8.172 0 0 0 1.875.078c.324-.013.642-.065.953-.156.547-.169.812-.542.797-1.117h-.734c0 .377-.187.594-.563.648a8.523 8.523 0 0 1-2.188 0c-.372-.054-.614-.26-.727-.617a3.567 3.567 0 0 1-.102-.797c1.417.005 2.833 0 4.25-.016.035-.099.055-.2.063-.305a17.24 17.24 0 0 0-.039-.555c-.119-.848-.601-1.351-1.445-1.508a6.414 6.414 0 0 0-1.063-.086zm-.454.625c.381-.006.761.002 1.141.023.36.012.659.15.898.414.111.165.178.348.203.547.015.125.022.25.023.375h-3.578c.004-.221.027-.44.07-.656a.845.845 0 0 1 .523-.57c.236-.077.475-.121.719-.133zM10.445 18.086v1.063h.156a.137.137 0 0 1 .008-.063.276.276 0 0 0 .148.07c.125.01.25.01.375 0a.343.343 0 0 0 .242-.133c.155-.558-.056-.785-.633-.68a.307.307 0 0 0-.133.055 3.262 3.262 0 0 1-.008-.313h-.156zm.313.375c.125-.003.25 0 .375.008.069.011.113.05.133.117.01.109.01.219 0 .328-.031.093-.096.137-.195.133-.115.012-.23.007-.344-.016a.155.155 0 0 1-.117-.133 1.474 1.474 0 0 1 0-.297.222.222 0 0 1 .148-.141zM18.18 18.133h.141v.219h.5v.125h-.5c-.003.151 0 .302.008.453a.24.24 0 0 0 .023.07.538.538 0 0 0 .313 0 .108.108 0 0 0 .039-.07.664.664 0 0 0 .008-.141h.125a.414.414 0 0 1-.078.305.499.499 0 0 1-.109.047 1.108 1.108 0 0 1-.359-.016.22.22 0 0 1-.102-.148 8.338 8.338 0 0 1-.008-.5h-.172v-.125h.172v-.219zM12.648 18.336a.377.377 0 0 0-.242.141.892.892 0 0 0-.047.438c.032.146.123.227.273.242.167.014.334.008.5-.016.104-.039.156-.114.156-.227h-.156c.012.058-.009.097-.063.117a1.346 1.346 0 0 1-.375.016c-.154-.015-.222-.1-.203-.258.267.01.53 0 .789-.031.028-.219-.064-.357-.273-.414a4.301 4.301 0 0 0-.359-.008zm-.015.125c.137-.006.272.001.406.023a.216.216 0 0 1 .094.211h-.641c-.011-.114.036-.192.141-.234zM14.508 18.336c-.138.018-.211.096-.219.234h.141c.006-.056.037-.09.094-.102.125-.01.25-.01.375 0l.063.031a.274.274 0 0 1 .055.242.403.403 0 0 0-.117-.039 2.283 2.283 0 0 0-.516.016.22.22 0 0 0-.102.07c-.083.161-.044.279.117.352.183.041.365.041.547 0a.17.17 0 0 0 .07-.055c.008.02.01.041.008.063h.156a7.58 7.58 0 0 0-.008-.5c-.008-.17-.094-.271-.258-.305-.135-.008-.271-.01-.406-.008zm-.031.484c.162-.006.324.002.484.023.077.05.082.107.016.172-.17.045-.342.05-.516.016-.106-.079-.101-.15.016-.211zM16.148 18.352h.156c-.003.193 0 .385.008.578a.24.24 0 0 0 .102.102.767.767 0 0 0 .422-.016.172.172 0 0 0 .086-.086c.023-.192.03-.384.023-.578h.141v.797h-.141a.27.27 0 0 0-.008-.094.4.4 0 0 1-.195.102 1.344 1.344 0 0 1-.469-.031.292.292 0 0 1-.117-.211 10.57 10.57 0 0 1-.008-.563zM19.758 18.367a.265.265 0 0 1 .18 0c.108.221.22.44.336.656.117-.218.221-.442.313-.672h.172c-.14.311-.288.618-.445.922a.411.411 0 0 1-.398.141v-.125a.557.557 0 0 0 .203-.023c.09-.04.103-.089.039-.148a26.714 26.714 0 0 0-.398-.75z"/>
    </symbol>
  </defs>
</svg>
